REM DIRINDEX 1\2\5,1\2\6,1\2\7,1\2\8,1\3\9,1\3\10,1\3\11,1\4\12,1\4\13,1\4\14,1\4\15,1\4\16
REM DIRNAME cjc034,folder01,folder02,folder03,folder04,folder05,folder06,folder07,folder08,folder09,folder10,folder11,folder12,folder13,folder14,folder15
TITLE ""
FILE "1200_2_sec03_1028_1044.mp3" MP3
  TRACK 01 AUDIO
    TITLE "0:"
    INDEX 01 00:00:00
  TRACK 02 AUDIO
    TITLE "10:cjc034_02120"
    INDEX 01 00:00:07
  TRACK 03 AUDIO
    TITLE "0:"
    INDEX 01 00:02:67
  TRACK 04 AUDIO
    TITLE "9:cjc034_02121"
    INDEX 01 00:02:73
  TRACK 05 AUDIO
    TITLE "0:"
    INDEX 01 00:04:15
  TRACK 06 AUDIO
    TITLE "10:cjc034_02122"
    INDEX 01 00:04:74
  TRACK 07 AUDIO
    TITLE "0:"
    INDEX 01 00:06:08
  TRACK 08 AUDIO
    TITLE "9:cjc034_02123"
    INDEX 01 00:06:16
  TRACK 09 AUDIO
    TITLE "0:"
    INDEX 01 00:07:49
  TRACK 10 AUDIO
    TITLE "10:cjc034_02124"
    INDEX 01 00:08:32
  TRACK 11 AUDIO
    TITLE "0:"
    INDEX 01 00:09:59
  TRACK 12 AUDIO
    TITLE "9:cjc034_02125"
    INDEX 01 00:09:63
  TRACK 13 AUDIO
    TITLE "0:"
    INDEX 01 00:10:72
  TRACK 14 AUDIO
    TITLE "10:cjc034_02126"
    INDEX 01 00:11:50
  TRACK 15 AUDIO
    TITLE "0:"
    INDEX 01 00:13:08
  TRACK 16 AUDIO
    TITLE "9:cjc034_02127"
    INDEX 01 00:13:10
  TRACK 17 AUDIO
    TITLE "0:"
    INDEX 01 00:14:25
  TRACK 18 AUDIO
    TITLE "10:cjc034_02128"
    INDEX 01 00:15:03
  TRACK 19 AUDIO
    TITLE "0:"
    INDEX 01 00:16:24
  TRACK 20 AUDIO
    TITLE "9:cjc034_02129"
    INDEX 01 00:16:26
  TRACK 21 AUDIO
    TITLE "0:"
    INDEX 01 00:17:39
  TRACK 22 AUDIO
    TITLE "10:cjc034_02130"
    INDEX 01 00:18:27
  TRACK 23 AUDIO
    TITLE "0:"
    INDEX 01 00:19:65
  TRACK 24 AUDIO
    TITLE "9:cjc034_02131"
    INDEX 01 00:19:67
  TRACK 25 AUDIO
    TITLE "0:"
    INDEX 01 00:21:27
  TRACK 26 AUDIO
    TITLE "10:cjc034_02132"
    INDEX 01 00:22:09
  TRACK 27 AUDIO
    TITLE "0:"
    INDEX 01 00:23:16
  TRACK 28 AUDIO
    TITLE "9:cjc034_02133"
    INDEX 01 00:23:26
  TRACK 29 AUDIO
    TITLE "0:"
    INDEX 01 00:24:39
  TRACK 30 AUDIO
    TITLE "10:cjc034_02134"
    INDEX 01 00:25:21
  TRACK 31 AUDIO
    TITLE "0:"
    INDEX 01 00:27:22
  TRACK 32 AUDIO
    TITLE "9:cjc034_02135"
    INDEX 01 00:27:28
  TRACK 33 AUDIO
    TITLE "0:"
    INDEX 01 00:28:41
  TRACK 34 AUDIO
    TITLE "10:cjc034_02136"
    INDEX 01 00:29:21
  TRACK 35 AUDIO
    TITLE "0:"
    INDEX 01 00:30:22
  TRACK 36 AUDIO
    TITLE "9:cjc034_02137"
    INDEX 01 00:30:28
  TRACK 37 AUDIO
    TITLE "0:"
    INDEX 01 00:31:51
  TRACK 38 AUDIO
    TITLE "11:cjc034_02138"
    INDEX 01 00:33:26
  TRACK 39 AUDIO
    TITLE "0:"
    INDEX 01 00:38:63
  TRACK 40 AUDIO
    TITLE "10:cjc034_02139"
    INDEX 01 00:39:68
  TRACK 41 AUDIO
    TITLE "0:"
    INDEX 01 00:41:63
  TRACK 42 AUDIO
    TITLE "9:cjc034_02140"
    INDEX 01 00:41:65
  TRACK 43 AUDIO
    TITLE "0:"
    INDEX 01 00:43:15
  TRACK 44 AUDIO
    TITLE "10:cjc034_02141"
    INDEX 01 00:43:72
  TRACK 45 AUDIO
    TITLE "0:"
    INDEX 01 00:45:28
  TRACK 46 AUDIO
    TITLE "9:cjc034_02142"
    INDEX 01 00:45:33
  TRACK 47 AUDIO
    TITLE "0:"
    INDEX 01 00:46:74
  TRACK 48 AUDIO
    TITLE "10:cjc034_02143"
    INDEX 01 00:47:58
  TRACK 49 AUDIO
    TITLE "0:"
    INDEX 01 00:49:67
  TRACK 50 AUDIO
    TITLE "9:cjc034_02144"
    INDEX 01 00:49:74
  TRACK 51 AUDIO
    TITLE "0:"
    INDEX 01 00:50:70
  TRACK 52 AUDIO
    TITLE "10:cjc034_02145"
    INDEX 01 00:51:54
  TRACK 53 AUDIO
    TITLE "0:"
    INDEX 01 00:52:53
  TRACK 54 AUDIO
    TITLE "9:cjc034_02146"
    INDEX 01 00:52:55
  TRACK 55 AUDIO
    TITLE "0:"
    INDEX 01 00:54:05
  TRACK 56 AUDIO
    TITLE "10:cjc034_02147"
    INDEX 01 00:54:62
  TRACK 57 AUDIO
    TITLE "0:"
    INDEX 01 00:56:02
  TRACK 58 AUDIO
    TITLE "9:cjc034_02148"
    INDEX 01 00:56:06
  TRACK 59 AUDIO
    TITLE "0:"
    INDEX 01 00:57:25
  TRACK 60 AUDIO
    TITLE "10:cjc034_02149"
    INDEX 01 00:58:11
  TRACK 61 AUDIO
    TITLE "0:"
    INDEX 01 00:59:22
  TRACK 62 AUDIO
    TITLE "9:cjc034_02150"
    INDEX 01 00:59:26
  TRACK 63 AUDIO
    TITLE "0:"
    INDEX 01 01:00:66
  TRACK 64 AUDIO
    TITLE "10:cjc034_02151"
    INDEX 01 01:01:50
  TRACK 65 AUDIO
    TITLE "0:"
    INDEX 01 01:02:57
  TRACK 66 AUDIO
    TITLE "9:cjc034_02152"
    INDEX 01 01:02:61
  TRACK 67 AUDIO
    TITLE "0:"
    INDEX 01 01:04:07
  TRACK 68 AUDIO
    TITLE "10:cjc034_02153"
    INDEX 01 01:04:64
  TRACK 69 AUDIO
    TITLE "0:"
    INDEX 01 01:07:31
  TRACK 70 AUDIO
    TITLE "9:cjc034_02154"
    INDEX 01 01:07:37
  TRACK 71 AUDIO
    TITLE "0:"
    INDEX 01 01:08:56
